<svg width="18" height="20" viewBox="0 0 18 20" fill="none" xmlns="http://www.w3.org/2000/svg">
<path d="M8.99967 9.99996C11.3009 9.99996 13.1663 8.13448 13.1663 5.83329C13.1663 3.53211 11.3009 1.66663 8.99967 1.66663C6.69849 1.66663 4.83301 3.53211 4.83301 5.83329C4.83301 8.13448 6.69849 9.99996 8.99967 9.99996Z" stroke="#6867AC" stroke-width="2"/>
<path d="M13.1666 11.6666H13.4599C14.0691 11.6668 14.6573 11.8894 15.114 12.2927C15.5706 12.696 15.8643 13.2521 15.9399 13.8566L16.2657 16.46C16.295 16.6945 16.2741 16.9326 16.2044 17.1584C16.1346 17.3842 16.0177 17.5926 15.8612 17.7698C15.7048 17.947 15.5125 18.0888 15.297 18.186C15.0816 18.2831 14.8479 18.3333 14.6116 18.3333H3.38822C3.15187 18.3333 2.91822 18.2831 2.70276 18.186C2.4873 18.0888 2.29497 17.947 2.13853 17.7698C1.9821 17.5926 1.86513 17.3842 1.79539 17.1584C1.72566 16.9326 1.70475 16.6945 1.73405 16.46L2.05905 13.8566C2.13463 13.2518 2.42857 12.6954 2.88558 12.2921C3.34259 11.8888 3.9312 11.6664 4.54072 11.6666H4.83322" stroke="#6867AC" stroke-width="2" stroke-linecap="round" stroke-linejoin="round"/>
</svg>
