<svg width="24" height="23" viewBox="0 0 24 23" fill="none" xmlns="http://www.w3.org/2000/svg">
<path fill-rule="evenodd" clip-rule="evenodd" d="M9.19083 14.2833C12.993 14.2833 18.0482 14.7115 18.0482 18.4157C18.0482 22.3176 12.1578 22.5517 9.63114 22.5658L8.71378 22.5658C6.01976 22.5518 0.333496 22.319 0.333496 18.439C0.333496 14.5327 6.22387 14.2983 8.75052 14.2842L9.05409 14.2834C9.1014 14.2833 9.14701 14.2833 9.19083 14.2833ZM9.19083 16.0333C5.94866 16.0333 2.0835 16.4498 2.0835 18.439C2.0835 20.0163 4.47516 20.8167 9.19083 20.8167C13.9065 20.8167 16.2982 20.0082 16.2982 18.4157C16.2982 16.8348 13.9065 16.0333 9.19083 16.0333ZM19.8246 13.7384C22.9816 14.2109 23.6431 15.6727 23.6431 16.8149C23.6431 17.6654 23.2756 18.8169 21.5221 19.4807C21.4206 19.5192 21.3156 19.5379 21.2118 19.5379C20.8583 19.5379 20.5258 19.322 20.394 18.9732C20.2225 18.5217 20.45 18.0154 20.9015 17.845C21.8931 17.4694 21.8931 17.0109 21.8931 16.8149C21.8931 16.1534 21.1103 15.7007 19.5668 15.4709C19.0885 15.3985 18.7583 14.9529 18.8295 14.4757C18.9018 13.9974 19.3556 13.6765 19.8246 13.7384ZM9.19083 0.333496C12.4937 0.333496 15.1817 3.0215 15.1817 6.32433C15.1887 7.91566 14.5715 9.41833 13.4468 10.55C12.3245 11.6828 10.8253 12.3093 9.2305 12.3152H9.19083C5.88683 12.3152 3.19883 9.62716 3.19883 6.32433C3.19883 3.0215 5.88683 0.333496 9.19083 0.333496ZM17.4597 1.6446C19.7522 2.02026 21.4159 3.98143 21.4159 6.3066C21.4112 8.64576 19.6647 10.6548 17.3524 10.9791C17.3115 10.9849 17.2707 10.9873 17.2299 10.9873C16.8005 10.9873 16.426 10.6711 16.3642 10.2336C16.2977 9.75526 16.6302 9.31193 17.1085 9.24543C18.5645 9.04126 19.6635 7.77776 19.6659 6.30543C19.6659 4.84243 18.6182 3.6081 17.1774 3.37243C16.7002 3.2931 16.377 2.84393 16.4552 2.36676C16.5334 1.8896 16.9849 1.56876 17.4597 1.6446ZM9.19083 2.0835C6.85166 2.0835 4.94883 3.98633 4.94883 6.32433C4.94883 8.66233 6.85166 10.5652 9.19083 10.5652H9.227C10.3517 10.5605 11.411 10.1183 12.2055 9.31683C13.0012 8.51766 13.4363 7.45483 13.4317 6.32783C13.4317 3.98633 11.5288 2.0835 9.19083 2.0835Z" fill="#6867AC"/>
</svg>
