<svg width="18" height="20" viewBox="0 0 18 20" fill="none" xmlns="http://www.w3.org/2000/svg">
<path d="M8.99967 9.99984C11.3009 9.99984 13.1663 8.13436 13.1663 5.83317C13.1663 3.53198 11.3009 1.6665 8.99967 1.6665C6.69849 1.6665 4.83301 3.53198 4.83301 5.83317C4.83301 8.13436 6.69849 9.99984 8.99967 9.99984Z" stroke="#6D7878" stroke-width="2"/>
<path d="M13.1666 11.6665H13.4599C14.0691 11.6667 14.6573 11.8893 15.114 12.2926C15.5706 12.6958 15.8643 13.252 15.9399 13.8565L16.2657 16.4598C16.295 16.6944 16.2741 16.9324 16.2044 17.1583C16.1346 17.3841 16.0177 17.5925 15.8612 17.7697C15.7048 17.9468 15.5125 18.0887 15.297 18.1859C15.0816 18.283 14.8479 18.3332 14.6116 18.3332H3.38822C3.15187 18.3332 2.91822 18.283 2.70276 18.1859C2.4873 18.0887 2.29497 17.9468 2.13853 17.7697C1.9821 17.5925 1.86513 17.3841 1.79539 17.1583C1.72566 16.9324 1.70475 16.6944 1.73405 16.4598L2.05905 13.8565C2.13463 13.2517 2.42857 12.6953 2.88558 12.292C3.34259 11.8887 3.9312 11.6663 4.54072 11.6665H4.83322" stroke="#6D7878" stroke-width="2" stroke-linecap="round" stroke-linejoin="round"/>
</svg>
