<svg width="19" height="18" viewBox="0 0 19 18" fill="none" xmlns="http://www.w3.org/2000/svg">
<path fill-rule="evenodd" clip-rule="evenodd" d="M9.77092 2.125C9.6875 2.125 9.48217 2.14792 9.37309 2.36608L7.69925 5.71283C7.43434 6.24175 6.92375 6.60933 6.33342 6.69367L2.58609 7.23358C2.33859 7.26933 2.25425 7.45267 2.22859 7.52967C2.20567 7.60392 2.169 7.79275 2.3395 7.95592L5.04917 10.5593C5.48092 10.9745 5.67709 11.5731 5.57442 12.1588L4.93642 15.8347C4.897 16.0647 5.04092 16.1986 5.10509 16.2444C5.17292 16.2958 5.35442 16.3975 5.579 16.2802L8.92942 14.5431C9.45742 14.2708 10.0863 14.2708 10.6124 14.5431L13.9619 16.2793C14.1874 16.3957 14.3689 16.2939 14.4377 16.2444C14.5018 16.1986 14.6458 16.0647 14.6063 15.8347L13.9665 12.1588C13.8638 11.5731 14.06 10.9745 14.4918 10.5593L17.2014 7.95592C17.3728 7.79275 17.3362 7.603 17.3123 7.52967C17.2876 7.45267 17.2033 7.26933 16.9558 7.23358L13.2084 6.69367C12.619 6.60933 12.1084 6.24175 11.8435 5.71192L10.1678 2.36608C10.0597 2.14792 9.85434 2.125 9.77092 2.125ZM5.36817 17.7083C4.98959 17.7083 4.61375 17.5892 4.292 17.3545C3.7365 16.9475 3.46425 16.2756 3.5825 15.5991L4.2205 11.9233C4.24434 11.7867 4.19759 11.6483 4.09675 11.5511L1.38709 8.94775C0.888419 8.47017 0.709669 7.76433 0.920503 7.10892C1.13317 6.44617 1.696 5.97225 2.38992 5.87325L6.13725 5.33333C6.28209 5.31317 6.40675 5.22425 6.46909 5.09775L8.14384 1.75008C8.45275 1.13317 9.07609 0.75 9.77092 0.75C10.4658 0.75 11.0891 1.13317 11.398 1.75008L13.0737 5.09683C13.1369 5.22425 13.2607 5.31317 13.4046 5.33333L17.1519 5.87325C17.8458 5.97225 18.4087 6.44617 18.6213 7.10892C18.8322 7.76433 18.6525 8.47017 18.1538 8.94775L15.4442 11.5511C15.3433 11.6483 15.2975 11.7867 15.3213 11.9223L15.9603 15.5991C16.0776 16.2765 15.8053 16.9484 15.2489 17.3545C14.6852 17.7679 13.9509 17.8238 13.3285 17.4993L9.97992 15.7641C9.84884 15.6962 9.69209 15.6962 9.561 15.7641L6.21242 17.5003C5.94475 17.6396 5.656 17.7083 5.36817 17.7083Z" fill="#6D7878"/>
</svg>
