<svg width="22" height="22" viewBox="0 0 22 22" fill="none" xmlns="http://www.w3.org/2000/svg">
<path d="M13.2917 10.7708C12.9708 10.7708 12.6998 10.6599 12.4786 10.4381C12.2568 10.2169 12.1458 9.94583 12.1458 9.625C12.1458 9.30417 12.2568 9.03314 12.4786 8.81192C12.6998 8.59008 12.9708 8.47917 13.2917 8.47917C13.6125 8.47917 13.8835 8.59008 14.1048 8.81192C14.3266 9.03314 14.4375 9.30417 14.4375 9.625C14.4375 9.94583 14.3266 10.2169 14.1048 10.4381C13.8835 10.6599 13.6125 10.7708 13.2917 10.7708ZM8.70833 10.7708C8.3875 10.7708 8.11647 10.6599 7.89525 10.4381C7.67342 10.2169 7.5625 9.94583 7.5625 9.625C7.5625 9.30417 7.67342 9.03314 7.89525 8.81192C8.11647 8.59008 8.3875 8.47917 8.70833 8.47917C9.02917 8.47917 9.30019 8.59008 9.52142 8.81192C9.74325 9.03314 9.85417 9.30417 9.85417 9.625C9.85417 9.94583 9.74325 10.2169 9.52142 10.4381C9.30019 10.6599 9.02917 10.7708 8.70833 10.7708ZM11 15.5833C10.0833 15.5833 9.25467 15.3312 8.514 14.8271C7.77272 14.3229 7.22639 13.6583 6.875 12.8333H15.125C14.7736 13.6583 14.2276 14.3229 13.4869 14.8271C12.7456 15.3312 11.9167 15.5833 11 15.5833ZM11 19.25C9.85417 19.25 8.78106 19.0324 7.78067 18.5973C6.77967 18.1616 5.90883 17.5731 5.16817 16.8318C4.42689 16.0912 3.83839 15.2203 3.40267 14.2193C2.96756 13.2189 2.75 12.1458 2.75 11C2.75 9.85417 2.96756 8.78075 3.40267 7.77975C3.83839 6.77936 4.42689 5.90853 5.16817 5.16725C5.90883 4.42658 6.77967 3.83839 7.78067 3.40267C8.78106 2.96756 9.85417 2.75 11 2.75C12.1458 2.75 13.2192 2.96756 14.2202 3.40267C15.2206 3.83839 16.0915 4.42658 16.8328 5.16725C17.5734 5.90853 18.1616 6.77936 18.5973 7.77975C19.0324 8.78075 19.25 9.85417 19.25 11C19.25 12.1458 19.0324 13.2189 18.5973 14.2193C18.1616 15.2203 17.5734 16.0912 16.8328 16.8318C16.0915 17.5731 15.2206 18.1616 14.2202 18.5973C13.2192 19.0324 12.1458 19.25 11 19.25ZM11 17.4167C12.7722 17.4167 14.2847 16.7903 15.5375 15.5375C16.7903 14.2847 17.4167 12.7722 17.4167 11C17.4167 9.22778 16.7903 7.71528 15.5375 6.4625C14.2847 5.20972 12.7722 4.58333 11 4.58333H10.725C10.6333 4.58333 10.5417 4.59861 10.45 4.62917C10.3583 4.72083 10.2972 4.82014 10.2667 4.92708C10.2361 5.03403 10.2208 5.14861 10.2208 5.27083C10.2208 5.59167 10.3314 5.86269 10.5527 6.08392C10.7745 6.30575 11.0458 6.41667 11.3667 6.41667C11.5042 6.41667 11.6301 6.39375 11.7443 6.34792C11.8592 6.30208 11.9778 6.27917 12.1 6.27917C12.2833 6.27917 12.4361 6.34792 12.5583 6.48542C12.6806 6.62292 12.7417 6.78333 12.7417 6.96667C12.7417 7.31806 12.5776 7.54325 12.2494 7.64225C11.9206 7.74186 11.6264 7.79167 11.3667 7.79167C10.6792 7.79167 10.0873 7.54356 9.59108 7.04733C9.09425 6.5505 8.84583 5.95833 8.84583 5.27083V5.13333C8.84583 5.0875 8.85347 5.02639 8.86875 4.95C7.60069 5.40833 6.56944 6.17986 5.775 7.26458C4.98056 8.34931 4.58333 9.59444 4.58333 11C4.58333 12.7722 5.20972 14.2847 6.4625 15.5375C7.71528 16.7903 9.22778 17.4167 11 17.4167Z" fill="#6867AC"/>
</svg>
