<svg width="28" height="28" viewBox="0 0 28 28" fill="none" xmlns="http://www.w3.org/2000/svg">
<path d="M12.6202 10.6487C11.8349 11.2312 10.8837 11.5471 9.90594 11.55C8.88832 11.55 7.95469 11.2087 7.19082 10.6487C6.53457 11.1956 5.88007 11.9787 5.34457 12.9439C4.09944 15.1865 3.96207 17.4869 5.03832 18.0836C5.51782 18.3566 6.02357 18.1519 6.54507 17.6496C6.44743 18.1907 6.39853 18.7395 6.39894 19.2894C6.39894 21.8601 7.39644 23.9374 8.62407 23.9374C9.36432 23.9374 9.73094 23.1805 9.90682 22.0229C10.0818 23.1726 10.4493 23.9374 11.1843 23.9374C12.4067 23.9374 13.4121 21.8592 13.4121 19.2894C13.4121 18.7119 13.3578 18.1606 13.2651 17.6505C13.7901 18.1536 14.2941 18.3619 14.7753 18.0854C15.8489 17.4886 15.7098 15.1891 14.4656 12.9456C13.9318 11.9796 13.2756 11.1974 12.6193 10.6505L12.6202 10.6487ZM9.90507 10.675C10.3969 10.6748 10.8839 10.5778 11.3383 10.3894C11.7926 10.201 12.2054 9.92496 12.5531 9.57705C12.9008 9.22913 13.1765 8.81614 13.3646 8.36165C13.5527 7.90717 13.6494 7.4201 13.6492 6.92824C13.649 6.43638 13.552 5.94937 13.3636 5.49502C13.1752 5.04067 12.8992 4.62787 12.5512 4.2802C12.2033 3.93252 11.7903 3.65678 11.3359 3.46872C10.8814 3.28065 10.3943 3.18394 9.90244 3.18411C8.90886 3.18446 7.95611 3.57949 7.25378 4.28231C6.55146 4.98513 6.15709 5.93815 6.15744 6.93174C6.15779 7.92532 6.55282 8.87807 7.25564 9.5804C7.95845 10.2827 8.91148 10.6771 9.90507 10.6767V10.675ZM19.2387 15.4612C20.5582 15.4612 21.6292 14.3902 21.6292 13.069C21.6292 11.7477 20.5564 10.675 19.2378 10.675C18.603 10.6752 17.9942 10.9275 17.5453 11.3764C17.0963 11.8253 16.844 12.4341 16.8438 13.069C16.8443 13.7038 17.0968 14.3125 17.5459 14.7613C17.995 15.21 18.6038 15.4621 19.2387 15.4621V15.4612ZM22.1524 16.9111C21.8112 16.2942 21.3929 15.7937 20.9729 15.4437C20.4829 15.8025 19.8879 16.0212 19.2378 16.0212C18.5868 16.0212 17.9901 15.8025 17.5027 15.4437C17.0827 15.7937 16.6644 16.2942 16.3214 16.9111C15.5252 18.3444 15.4377 19.8144 16.1254 20.1959C16.4317 20.3709 16.7554 20.2396 17.0879 19.9194C17.0271 20.2652 16.9966 20.6156 16.9969 20.9667C16.9969 22.6117 17.6339 23.9391 18.4188 23.9391C18.8913 23.9391 19.1276 23.4552 19.2396 22.7159C19.3516 23.4509 19.5861 23.9382 20.0568 23.9382C20.8382 23.9382 21.4804 22.61 21.4804 20.9667C21.4804 20.5992 21.4454 20.2457 21.3859 19.9202C21.7211 20.2414 22.0439 20.3752 22.3519 20.1976C23.0362 19.8179 22.9469 18.347 22.1524 16.9137V16.9111Z" fill="#6D7878"/>
</svg>
