<svg width="18" height="18" viewBox="0 0 18 18" fill="none" xmlns="http://www.w3.org/2000/svg">
<path d="M9.4605 1.6575C9.32884 1.55509 9.1668 1.49948 9 1.49948C8.8332 1.49948 8.67116 1.55509 8.5395 1.6575L2.3685 6.4575C2.09787 6.66802 1.87893 6.93761 1.72841 7.24568C1.57789 7.55374 1.49976 7.89213 1.5 8.235V15C1.5 15.3978 1.65804 15.7794 1.93934 16.0607C2.22064 16.342 2.60218 16.5 3 16.5H6C6.39783 16.5 6.77936 16.342 7.06066 16.0607C7.34196 15.7794 7.5 15.3978 7.5 15V10.5H10.5V15C10.5 15.3978 10.658 15.7794 10.9393 16.0607C11.2206 16.342 11.6022 16.5 12 16.5H15C15.3978 16.5 15.7794 16.342 16.0607 16.0607C16.342 15.7794 16.5 15.3978 16.5 15V8.235C16.5001 7.89201 16.4217 7.55354 16.2709 7.24547C16.1201 6.93739 15.9009 6.66787 15.63 6.4575L9.4605 1.6575V1.6575Z" fill="#6D7878"/>
</svg>
