<svg width="18" height="18" viewBox="0 0 18 18" fill="none" xmlns="http://www.w3.org/2000/svg">
<path d="M11.2917 8.77083C10.9708 8.77083 10.6998 8.65992 10.4786 8.43808C10.2568 8.21686 10.1458 7.94583 10.1458 7.625C10.1458 7.30417 10.2568 7.03314 10.4786 6.81192C10.6998 6.59008 10.9708 6.47917 11.2917 6.47917C11.6125 6.47917 11.8835 6.59008 12.1048 6.81192C12.3266 7.03314 12.4375 7.30417 12.4375 7.625C12.4375 7.94583 12.3266 8.21686 12.1048 8.43808C11.8835 8.65992 11.6125 8.77083 11.2917 8.77083ZM6.70833 8.77083C6.3875 8.77083 6.11647 8.65992 5.89525 8.43808C5.67342 8.21686 5.5625 7.94583 5.5625 7.625C5.5625 7.30417 5.67342 7.03314 5.89525 6.81192C6.11647 6.59008 6.3875 6.47917 6.70833 6.47917C7.02917 6.47917 7.30019 6.59008 7.52142 6.81192C7.74325 7.03314 7.85417 7.30417 7.85417 7.625C7.85417 7.94583 7.74325 8.21686 7.52142 8.43808C7.30019 8.65992 7.02917 8.77083 6.70833 8.77083ZM9 13.5833C8.08333 13.5833 7.25467 13.3312 6.514 12.8271C5.77272 12.3229 5.22639 11.6583 4.875 10.8333H13.125C12.7736 11.6583 12.2276 12.3229 11.4869 12.8271C10.7456 13.3312 9.91667 13.5833 9 13.5833ZM9 17.25C7.85417 17.25 6.78106 17.0324 5.78067 16.5973C4.77967 16.1616 3.90883 15.5731 3.16817 14.8318C2.42689 14.0912 1.83839 13.2203 1.40267 12.2193C0.967555 11.2189 0.75 10.1458 0.75 9C0.75 7.85417 0.967555 6.78075 1.40267 5.77975C1.83839 4.77936 2.42689 3.90853 3.16817 3.16725C3.90883 2.42658 4.77967 1.83839 5.78067 1.40267C6.78106 0.967555 7.85417 0.75 9 0.75C10.1458 0.75 11.2192 0.967555 12.2203 1.40267C13.2206 1.83839 14.0915 2.42658 14.8328 3.16725C15.5734 3.90853 16.1616 4.77936 16.5973 5.77975C17.0324 6.78075 17.25 7.85417 17.25 9C17.25 10.1458 17.0324 11.2189 16.5973 12.2193C16.1616 13.2203 15.5734 14.0912 14.8328 14.8318C14.0915 15.5731 13.2206 16.1616 12.2203 16.5973C11.2192 17.0324 10.1458 17.25 9 17.25ZM9 15.4167C10.7722 15.4167 12.2847 14.7903 13.5375 13.5375C14.7903 12.2847 15.4167 10.7722 15.4167 9C15.4167 7.22778 14.7903 5.71528 13.5375 4.4625C12.2847 3.20972 10.7722 2.58333 9 2.58333H8.725C8.63333 2.58333 8.54167 2.59861 8.45 2.62917C8.35833 2.72083 8.29722 2.82014 8.26667 2.92708C8.23611 3.03403 8.22083 3.14861 8.22083 3.27083C8.22083 3.59167 8.33144 3.86269 8.55267 4.08392C8.7745 4.30575 9.04583 4.41667 9.36667 4.41667C9.50417 4.41667 9.63006 4.39375 9.74433 4.34792C9.85922 4.30208 9.97778 4.27917 10.1 4.27917C10.2833 4.27917 10.4361 4.34792 10.5583 4.48542C10.6806 4.62292 10.7417 4.78333 10.7417 4.96667C10.7417 5.31806 10.5776 5.54325 10.2494 5.64225C9.92064 5.74186 9.62639 5.79167 9.36667 5.79167C8.67917 5.79167 8.08731 5.54356 7.59108 5.04733C7.09425 4.5505 6.84583 3.95833 6.84583 3.27083V3.13333C6.84583 3.0875 6.85347 3.02639 6.86875 2.95C5.60069 3.40833 4.56944 4.17986 3.775 5.26458C2.98056 6.34931 2.58333 7.59444 2.58333 9C2.58333 10.7722 3.20972 12.2847 4.4625 13.5375C5.71528 14.7903 7.22778 15.4167 9 15.4167Z" fill="#6867AC"/>
</svg>
